<?xml version="1.0" standalone="no"?><!DOCTYPE svg PUBLIC "-//W3C//DTD SVG 1.1//EN" "http://www.w3.org/Graphics/SVG/1.1/DTD/svg11.dtd"><svg t="1711963152427" class="icon" viewBox="0 0 1024 1024" version="1.1" xmlns="http://www.w3.org/2000/svg" p-id="6842" xmlns:xlink="http://www.w3.org/1999/xlink" width="200" height="200"><path d="M64.3 511.7a447.8 447.8 0 1 0 895.6 0 447.8 447.8 0 1 0-895.6 0z" fill="#F64D37" p-id="6843"></path><path d="M697.5 597.9c-42.8-26.9-49.3-30.7-64.3-28.3-15.1 2.4-19.5 5.6-41.2 36-3.1 3.7-32.1 48.7-136.4-51.5-76.5-78.8-53.8-107.5-39.4-126 12.6-11.7 26.7-17 28.8-38 0.9-9.7-0.3-29.5-32.1-73-21.3-31.1-25.5-33.6-39.7-33.8-14.2-0.3-36.8 6.7-60.1 25.5-23 15.5-30.1 33.6-32.6 54.8-2.6 26.8-7.7 117.4 107.1 243.9s263.3 153.7 315 117.8c22.3-15.8 40.5-51 41.3-73.6 2.8-15.4-3.6-26.9-46.4-53.8z" fill="#FFFFFF" p-id="6844"></path></svg>